Coordinates
version=1
nRows=5
nColumns=63
inDegrees=yes

Units are S.I. units (second, meters, Newtons, ...)
If the header above contains a line with 'inDegrees', this indicates whether rotational values are in degrees (yes) or radians (no).

endheader
time	pelvis_tilt	pelvis_list	pelvis_rotation	pelvis_tx	pelvis_ty	pelvis_tz	hip_flexion_r	hip_adduction_r	hip_rotation_r	knee_angle_r	knee_angle_r_beta	ankle_angle_r	subtalar_angle_r	mtp_angle_r	hip_flexion_l	hip_adduction_l	hip_rotation_l	knee_angle_l	knee_angle_l_beta	ankle_angle_l	subtalar_angle_l	mtp_angle_l	L5_S1_Flex_Ext	L5_S1_Lat_Bending	L5_S1_axial_rotation	L4_L5_Flex_Ext	L4_L5_Lat_Bending	L4_L5_axial_rotation	L3_L4_Flex_Ext	L3_L4_Lat_Bending	L3_L4_axial_rotation	L2_L3_Flex_Ext	L2_L3_Lat_Bending	L2_L3_axial_rotation	L1_L2_Flex_Ext	L1_L2_Lat_Bending	L1_L2_axial_rotation	L1_T12_Flex_Ext	L1_T12_Lat_Bending	L1_T12_axial_rotation	Abs_r3	Abs_r2	Abs_r1	Abs_t1	Abs_t2	neck_flexion	neck_bending	neck_rotation	arm_flex_r	arm_add_r	arm_rot_r	elbow_flex_r	pro_sup_r	wrist_flex_r	wrist_dev_r	arm_flex_l	arm_add_l	arm_rot_l	elbow_flex_l	pro_sup_l	wrist_flex_l	wrist_dev_l
      1.48148148	     -0.79493719	      0.06921483	    109.32756317	      0.36139400	      0.53280607	      0.94138829	      1.27034485	     -4.03934384	    -13.13194193	     11.40081858	      0.19898182	     20.00308103	     13.78215737	      0.00000000	      0.00167672	      2.84947566	     -4.31437010	      6.17764101	      0.10782018	     16.46000213	     -0.33625542	      0.00000000	      0.01673299	     -0.18578316	      0.72256129	      0.03107483	     -0.24709161	      0.76772137	      0.02749063	     -0.45171319	      0.76772137	      0.01912413	     -0.45171319	      0.63224113	      0.01553825	     -0.37884903	      0.58708105	      0.00956123	     -0.28777812	      0.54192097	      0.11952206	     -2.10161631	      4.01866913	      0.00000000	      0.00000000	     26.74223911	    -11.83278791	     -8.98581552	     11.82128156	     -9.94537776	    134.03824561	      1.08866239	      5.87586427	     -3.64002976	     -4.64654110	     72.05880764	     -3.04307365	     17.39634921	    129.58096494	     89.21548652	     -6.20799327	     13.89873279
      1.50000000	     -0.83568364	      0.21504443	    108.63022713	      0.36272327	      0.53282890	      0.94170944	      1.29823931	     -3.96488034	    -11.91247919	     11.41896683	      0.19929857	     19.94926089	     13.41922161	      0.00000000	     -0.18181469	      2.84445231	     -4.58516443	      6.11114115	      0.10665953	     16.53833599	     -0.52532308	      0.00000000	     -0.00886624	     -0.18044173	      0.97592023	     -0.01646550	     -0.23998750	      1.03691525	     -0.01456635	     -0.43872603	      1.03691525	     -0.01013323	     -0.43872603	      0.85393020	     -0.00823319	     -0.36795678	      0.79293519	     -0.00506617	     -0.27950424	      0.73194018	     -0.06333070	     -2.04119295	      5.42777556	      0.00000000	      0.00000000	     27.13397995	    -13.64697989	    -10.58860773	     10.72024836	    -10.65296305	    125.39832398	      1.60044423	      4.79511368	     -3.27214323	     -6.34317967	     72.07640929	     -1.27248458	     18.17024168	    130.19111653	     89.27696458	     -5.33898210	     13.57150017
      1.51851852	     -0.87541505	      0.32637683	    107.94093700	      0.36391024	      0.53291729	      0.94180736	      1.29510867	     -3.92973018	    -11.12420643	     11.36985413	      0.19844139	     19.97286437	     13.53811611	      0.00000000	     -0.38735850	      2.86726489	     -4.82220448	      5.87222046	      0.10248958	     16.80875487	     -0.50342782	      0.00000000	     -0.01486367	     -0.17533473	      1.14642308	     -0.02760332	     -0.23319519	      1.21807452	     -0.02441952	     -0.42630886	      1.21807452	     -0.01698769	     -0.42630886	      1.00312020	     -0.01380240	     -0.35754258	      0.93146875	     -0.00849310	     -0.27159349	      0.85981731	     -0.10616971	     -1.98342150	      6.37606125	      0.00000000	      0.00000000	     27.59429725	    -14.89602660	    -11.56102457	     10.07098560	    -11.23483246	    120.74229371	      2.08822890	      3.57454712	     -2.96808154	     -7.40640462	     71.76991015	     -0.24144017	     18.87518271	    130.21659074	     89.32764480	     -4.96248467	     12.13147609
      1.53703704	     -1.00872425	      0.22829909	    107.48271498	      0.36474542	      0.53302232	      0.94145389	      1.25917713	     -4.02225609	    -10.63098516	     11.07188201	      0.19324080	     19.91507531	     13.62469235	      0.00000000	     -0.46492758	      3.04615696	     -4.94643478	      5.47644469	      0.09558199	     17.07091937	     -0.15357012	      0.00000000	      0.02010662	     -0.18837307	      1.15570556	      0.03734000	     -0.25053618	      1.22793716	      0.03303316	     -0.45801028	      1.22793716	      0.02297985	     -0.45801028	      1.01124237	      0.01867101	     -0.38413036	      0.93901077	      0.01148892	     -0.29178989	      0.86677917	      0.14361956	     -2.13091384	      6.42768762	      0.00000000	      0.00000000	     27.87584877	    -15.57364862	    -11.60477970	      9.82674526	    -11.47433608	    117.95839410	      2.45107940	      3.29188054	     -2.79934737	     -7.40220039	     70.98677205	      0.09447730	     19.34414265	    129.70562170	     89.35856091	     -4.91240131	     10.06219889
      1.55555556	     -1.19007038	      0.14126152	    106.98260090	      0.36591579	      0.53317870	      0.94112918	      1.22523773	     -4.13326264	    -10.08361278	     10.85327324	      0.18942535	     19.78916231	     13.43985376	      0.00000000	     -0.49862080	      3.22336980	     -5.66986603	      5.15498067	      0.08997139	     17.65529366	      0.95012372	      0.00000000	      0.03246084	     -0.21701242	      1.08604236	      0.06028303	     -0.28862651	      1.15392001	      0.05332992	     -0.52764399	      1.15392001	      0.03709950	     -0.52764399	      0.95028706	      0.03014314	     -0.44253172	      0.88240942	      0.01854813	     -0.33615223	      0.81453177	      0.23186455	     -2.45488786	      6.04024179	      0.00000000	      0.00000000	     28.03044193	    -15.78096039	    -11.96906733	     10.03577931	    -11.54905598	    114.73663086	      2.96608997	      4.31964158	     -2.41369229	     -7.19709915	     70.27499629	     -0.04571609	     20.21192926	    128.47524566	     89.36845126	     -6.31881968	      6.43635721
